<svg id="click.svg" xmlns="http://www.w3.org/2000/svg" width="45.44" height="42.72" viewBox="0 0 45.44 42.72">
  <defs>
    <style>
      .cls-1 {
        fill: #fff;
        fill-rule: evenodd;
      }
    </style>
  </defs>
  <path id="形狀_783" data-name="形狀 783" class="cls-1" d="M1084.09,4654.55h-26.75a9.355,9.355,0,0,0,0,18.71h6.81v7.55l-0.33-.28a4.321,4.321,0,0,0-5.73.25,3.741,3.741,0,0,0,.24,5.57l5.82,4.88v4.71a1.329,1.329,0,0,0,1.33,1.33h15.97a1.329,1.329,0,0,0,1.33-1.33v-14.97a4,4,0,0,0-3.5-3.97l-7.15-.89v-2.85h11.96a9.355,9.355,0,0,0,0-18.71h0Zm-17.28,40.06v-2.67h13.31v2.67h-13.31Zm12.14-14.96a1.329,1.329,0,0,1,1.17,1.32v8.31h-14.16l-5.92-4.97a1.089,1.089,0,0,1-.07-1.65,1.651,1.651,0,0,1,2.13-.09l2.52,2.12a1.335,1.335,0,0,0,2.19-1.02v-17.04a1.33,1.33,0,1,1,2.66,0v10.66a1.329,1.329,0,0,0,1.17,1.32Zm5.14-9.06h-11.96v-3.96a3.99,3.99,0,0,0-7.98,0v3.96h-6.81a6.685,6.685,0,0,1,0-13.37h26.75a6.685,6.685,0,0,1,0,13.37h0Zm0,0-1.01-10.32-4.38,4.39-1.72-1.72a1.333,1.333,0,1,0-1.89,1.88l2.67,2.67a1.328,1.328,0,0,0,1.88,0l5.32-5.33a1.333,1.333,0,0,0-1.88-1.89h0Zm0,0" transform="translate(-1048 -4654.56)"/>
</svg>
