<?xml version="1.0" encoding="utf-8"?>
<!-- Generator: Adobe Illustrator 25.2.3, SVG Export Plug-In . SVG Version: 6.00 Build 0)  -->
<svg version="1.1" id="Capa_1" xmlns="http://www.w3.org/2000/svg" xmlns:xlink="http://www.w3.org/1999/xlink" x="0px" y="0px"
	 viewBox="0 0 348.3 348.3" style="enable-background:new 0 0 348.3 348.3;" xml:space="preserve">
<style type="text/css">
	.st0{fill-rule:evenodd;clip-rule:evenodd;fill:#494843;}
</style>
<g>
	<g>
		<path class="st0" d="M195.7,173.7L343.9,25.5c5.8-5.8,5.8-15.3,0-21.1c-5.8-5.8-15.3-5.8-21.1,0L174.6,152.6L26.4,4.4
			c-5.8-5.8-15.3-5.8-21.1,0c-5.8,5.8-5.8,15.3,0,21.1l148.2,148.2L5.7,321.4c-5.8,5.8-5.8,15.3,0,21.1c5.8,5.8,15.3,5.8,21.1,0
			l147.7-147.7l147.7,147.7c5.8,5.8,15.3,5.8,21.1,0c5.8-5.8,5.8-15.3,0-21.1L195.7,173.7z"/>
	</g>
</g>
</svg>
