<?xml version="1.0" encoding="utf-8"?>
<!-- Generator: Adobe Illustrator 25.2.3, SVG Export Plug-In . SVG Version: 6.00 Build 0)  -->
<svg version="1.1" id="圖層_1" xmlns="http://www.w3.org/2000/svg" xmlns:xlink="http://www.w3.org/1999/xlink" x="0px" y="0px"
	 viewBox="0 0 630.39 178.61" style="enable-background:new 0 0 630.39 178.61;" xml:space="preserve">
<g id="logo">
	<g>
		<path d="M72.53,19.24c0,0,13.37,32.47,28.01,73.18c14.64,40.75,24.89,73.94,24.89,73.94s-13.27-32.1-27.91-72.82
			C82.9,52.82,72.53,19.24,72.53,19.24z"/>
		<path d="M91.59,16.62c12.25-5.72,25.81-3.72,37.98,6.07c12.12,9.75,21.52,25.9,26.49,45.46c4.96,19.57,4.83,40.18-0.37,58.04
			c-5.15,17.89-14.88,30.63-27.13,36.35l0,0c11.03-5.14,19.73-20.89,24.4-36.98c4.64-16.09,4.2-38.17-0.28-55.8
			C143.51,33.38,114.35,5.99,91.59,16.62L91.59,16.62z"/>
		<path d="M35.71,48.8"/>
		<path d="M62.56,23.33c-10.97,4.18-18.95,15.38-22.04,31.75c-3.13,16.33-1.19,35.79,5.43,54.71c6.59,18.97,17.09,35.14,29.51,45.61
			c12.44,10.46,25.32,13.6,36.29,9.44l0,0c-9.89,3.76-23.58-2.52-34.83-11.95c-11.15-9.4-22.03-27.17-27.96-44.21
			C36.67,73.47,42.14,31.1,62.56,23.33L62.56,23.33z"/>
		<path d="M120.95,163.63c-43.04,13.2-88.19-10-100.92-51.92C7.37,69.86,31.97,25.15,75,11.92c14.91-4.56,26.37-4.02,36.61-1.57
			c13.87,4.88,20.45,15.99,15.34,29.74c-7.34,19.85-36.18,37.65-64.39,39.71C45,81.08,31.82,75.99,26.13,67.2
			c5.39,10.97,20.41,17.49,40.88,15.98c30.89-2.26,62.52-21.93,70.63-43.87c6.11-16.49-2.82-29.63-20.75-34.13
			c-14.01-4.92-33.38-4.66-53.31,1.49C16.49,21.13-10.29,70.42,3.73,116.76c14.04,46.34,63.59,72.15,110.66,57.68
			c31.27-9.61,53.56-34.57,60.93-63.79C167.37,134.97,147.74,155.4,120.95,163.63z"/>
		<path d="M121.45,163.6C78.21,177,32.88,153.51,20.13,111.17C7.36,68.84,32.09,23.68,75.29,10.28c14.98-4.62,26.52-4.09,36.79-1.58
			c13.91,4.92,20.49,16.16,15.38,30.06c-7.35,20.09-36.3,38.03-64.65,40.15c-17.62,1.3-30.86-3.85-36.53-12.75
			c5.41,11.06,20.46,17.67,41.04,16.17c31.01-2.31,62.76-22.18,70.94-44.37C144.37,21.27,135.4,8,117.39,3.47
			c-14.08-5-33.5-4.68-53.56,1.48c-47.24,14.63-74.17,64.47-60.1,111.3c14.1,46.83,63.85,72.92,111.14,58.3
			c31.4-9.72,53.78-34.96,61.19-64.47C168.06,134.66,148.36,155.3,121.45,163.6z"/>
		<path d="M161.04,41.4c-1.68,12.28-8.82,25.77-20.28,37.9c-14.96,18.69-44.93,34.03-74.18,36.55
			c-22.08,1.92-38.51-3.88-45.45-14.28c6.56,12.97,25.22,20.44,50.96,18.18c38.77-3.33,78.84-27.45,89.5-53.78
			C165.39,56.57,164.94,48.16,161.04,41.4z"/>
		<path d="M169.59,69.07c-1.6,12.65-8.59,26.44-19.72,38.88c-14.66,19.14-43.9,34.83-72.44,37.43
			c-21.52,1.99-37.53-3.98-44.35-14.61c6.4,13.28,24.65,20.93,49.76,18.64c37.82-3.44,76.93-28.17,87.29-55.14
			C173.86,84.61,173.38,76.01,169.59,69.07z"/>
	</g>
</g>
<g id="text">
	<g>
		<g>
			<path d="M252.36,58.07c-0.21,6.28-0.71,12.15-1.49,17.61c-1.93,12.37-6.33,21.34-13.19,26.91c-0.42,0.26-0.73,0.28-0.94,0.08
				c-0.31-0.36,0.23-1.65,1.64-3.86c3.95-8.51,6.16-21.98,6.63-40.43l-1.09,0.3h-32.83l-4.6,0.69c-0.52,0.21-0.81,0.13-0.86-0.23
				l-0.78-2.81c-0.11-0.36,0.18-0.47,0.86-0.31l5.38,0.54h15.21c1.82-4.64,2.99-9,3.51-13.07c0.05-0.52,0.26-0.75,0.63-0.7l6.7,1.24
				c1.25,0.31,1.87,0.8,1.87,1.47c-0.05,0.57-0.49,0.95-1.32,1.16c-0.47,0.1-0.96,0.47-1.48,1.08c-2.08,3.35-4.55,6.29-7.41,8.81
				h4.37c0.52,0,0.94-0.18,1.25-0.53l3.59-4.33c0.37-0.36,0.78-0.39,1.25-0.08c2.34,1.45,4.24,3.24,5.7,5.4l0.16,0.16v-6.33V34.06
				c0-0.46,0.18-0.67,0.55-0.62c1.98,0.67,4.17,1.62,6.58,2.86c9.04-2.48,15.52-4.95,19.42-7.42c0.36-0.26,0.7-0.31,1.01-0.16
				c2.23,1.13,4.37,2.55,6.4,4.25c0.73,0.62,0.99,1.18,0.78,1.7c-0.36,0.41-0.88,0.59-1.56,0.54h-2.03
				c-5.67,1.34-13.6,2.42-23.79,3.25v1v11.37v5.1h14.03c0.57-0.05,1.01-0.26,1.32-0.62l3.98-4.95c0.42-0.41,0.89-0.46,1.4-0.15
				c2.7,1.65,4.94,3.71,6.71,6.19c0.36,0.42,0.47,0.78,0.31,1.1c-0.21,0.37-0.65,0.55-1.32,0.55h-8.89v41.83
				c-0.05,1.23-0.65,2.09-1.79,2.55c-1.5,0.62-2.98,0.54-4.43-0.23c-0.83-0.41-1.24-1.18-1.24-2.32V58.05h-10.2V58.07z M227.55,99.8
				c0,1.24-0.58,2.11-1.73,2.63c-1.57,0.51-3.09,0.44-4.55-0.23c-0.79-0.47-1.18-1.16-1.18-2.09V83.72
				c-4.11,7.27-8.74,12.14-13.88,14.61c-0.52,0.21-0.89,0.15-1.09-0.15c-0.1-0.31,0-0.62,0.31-0.93c5.2-5.26,9.2-13.38,12.01-24.35
				h-4.76l-4.6,0.69c-0.52,0.21-0.81,0.13-0.86-0.23l-0.78-2.81c-0.11-0.36,0.18-0.47,0.86-0.31l5.38,0.54h7.41v-8.2v-0.77
				c0-0.26,0.15-0.38,0.47-0.38l7.46,1c1.3,0.37,1.95,0.88,1.95,1.55l-2.42,2.63v4.18h3.12c0.57,0,0.96-0.18,1.17-0.54l3.51-4.1
				c0.31-0.36,0.7-0.38,1.17-0.08c2.19,1.39,3.98,3.12,5.38,5.19c0.37,0.42,0.47,0.78,0.32,1.1c-0.21,0.37-0.65,0.55-1.33,0.55
				h-13.34v3.48h0.31c5.25,1.03,9.05,3.56,11.39,7.58c0.67,1.29,0.83,2.66,0.47,4.1c-0.31,1.34-1.04,2.19-2.19,2.55
				c-1.2,0.31-2.29,0.13-3.28-0.54c-0.78-0.62-1.32-1.65-1.64-3.09c-0.88-3.45-2.57-6.34-5.07-8.66L227.55,99.8L227.55,99.8z
				 M219.78,27.4c-0.05-0.15,0.08-0.23,0.39-0.23c2.74,0.15,5.28,0.49,7.61,1c0.99,0.26,1.48,0.64,1.48,1.16
				c0,0.67-0.42,1.11-1.25,1.32c-0.57,0.15-0.83,0.46-0.78,0.93v7.04h2.8c0.52,0,0.94-0.18,1.25-0.54l3.59-4.33
				c0.36-0.36,0.77-0.39,1.25-0.08c2.34,1.45,4.23,3.25,5.69,5.42c0.37,0.42,0.47,0.78,0.31,1.1c-0.21,0.37-0.65,0.55-1.33,0.55
				h-28.13l-4.6,0.69c-0.52,0.21-0.81,0.13-0.86-0.23l-0.78-2.81c-0.1-0.36,0.18-0.47,0.86-0.31l5.38,0.54h7.1V27.4H219.78z
				 M211.91,42.31c0.15-0.21,0.39-0.28,0.7-0.23c4.52,1.08,7.51,3.56,8.97,7.42c0.31,1.39,0.13,2.73-0.55,4.02
				c-0.57,1.24-1.51,1.88-2.81,1.93c-2.75,0.15-4.05-1.39-3.9-4.64c0.1-3.25-0.65-5.82-2.26-7.73
				C211.8,42.77,211.75,42.51,211.91,42.31z"/>
			<path d="M302.45,59.31h-2.81l-5.07,0.62c-0.37,0.15-0.57,0.08-0.63-0.23l-0.62-2.73c-0.05-0.26,0.18-0.36,0.7-0.31l5.62,0.54
				h2.81V37.64h-2.5l-5.07,0.62c-0.37,0.15-0.57,0.08-0.63-0.23l-0.62-2.73c-0.05-0.26,0.18-0.36,0.7-0.31l5.62,0.54h12.76
				c0.47,0,0.81-0.15,1.01-0.46l2.96-3.94c0.47-0.52,0.96-0.59,1.48-0.23c1.46,1.19,2.73,2.71,3.82,4.56
				c0.47,0.58,0.6,1.1,0.39,1.57c-0.16,0.42-0.55,0.63-1.17,0.63h-11.29v19.56h2.57c0.26,0,1.56-1.39,3.9-4.17
				c0.42-0.52,0.89-0.59,1.41-0.23c1.4,1.13,2.6,2.58,3.59,4.33c0.47,0.58,0.6,1.1,0.39,1.57c-0.15,0.42-0.55,0.63-1.17,0.63h-10.69
				v18.79c3.53-0.88,7.12-2.01,10.76-3.4c0.52-0.26,0.86-0.23,1.01,0.08s0.05,0.64-0.31,1c-2.91,2.32-6.58,4.56-11,6.73l-9.17,4.17
				c-1.3,0.57-1.98,1.11-2.03,1.62c-0.26,0.88-0.65,1.39-1.17,1.55c-0.57,0.1-1.09-0.42-1.56-1.55c-0.99-1.96-1.9-4.25-2.73-6.88
				c-0.21-0.51,0.03-0.8,0.7-0.85l8.03-0.93L302.45,59.31L302.45,59.31z M339.55,81.59H325.2l-4.6,0.7
				c-0.52,0.21-0.81,0.13-0.86-0.23l-0.78-2.81c-0.1-0.36,0.18-0.47,0.86-0.31l5.38,0.54h14.35V65.77h-7.76v1.78
				c0,1.44-0.34,2.42-1.02,2.94c-0.83,0.72-2.06,1.08-3.68,1.08c-0.94,0-1.64-0.23-2.11-0.7c-0.42-0.41-0.6-1.03-0.55-1.86v-37.7
				v-0.54h0.62c2.08,0.52,4.45,1.39,7.1,2.63h19.2c0.68,0.1,1.17,0,1.48-0.31l2.11-2.24c0.52-0.57,1.04-0.75,1.56-0.54
				c2.91,1.08,5.1,2.19,6.56,3.32c1.46,1.18,1.22,2.19-0.7,3.01c-0.42,0.21-0.62,0.49-0.62,0.85v29.58
				c-0.05,0.98-0.5,1.73-1.34,2.24c-0.84,0.52-1.99,0.77-3.46,0.77c-1,0-1.73-0.23-2.2-0.7c-0.31-0.31-0.47-0.8-0.47-1.47v-2.16
				h-7.26v13.71h5.77c0.62-0.05,1.04-0.25,1.25-0.62l3.9-4.72c0.36-0.41,0.8-0.44,1.33-0.08c2.55,1.55,4.68,3.51,6.39,5.88
				c0.37,0.42,0.47,0.79,0.32,1.1c-0.21,0.37-0.65,0.55-1.33,0.55h-17.63v14.92h7.64c0.62-0.05,1.04-0.26,1.25-0.62l3.9-4.72
				c0.36-0.41,0.81-0.44,1.33-0.08c2.55,1.55,4.68,3.51,6.4,5.88c0.36,0.42,0.47,0.78,0.31,1.1c-0.21,0.37-0.65,0.55-1.33,0.55
				h-49.73l-4.6,0.7c-0.52,0.2-0.81,0.13-0.86-0.23l-0.78-2.81c-0.1-0.37,0.18-0.47,0.86-0.31l5.38,0.54h22.77L339.55,81.59
				L339.55,81.59z M339.55,35.61h-7.76v13.51h7.76V35.61z M339.55,51.24h-7.76v12.4h7.76V51.24z M347.01,49.12h7.26v-13.3
				c-0.21-0.36-0.47-0.46-0.78-0.31h-6.48V49.12z M347.01,63.64h7.26v-12.4h-7.26V63.64z"/>
			<path d="M405.19,69.44c0,1.24-0.58,2.11-1.73,2.63c-1.57,0.52-3.09,0.44-4.56-0.23c-0.78-0.46-1.18-1.16-1.18-2.09v-14.3
				c-4.52,6.6-9.15,10.98-13.88,13.14c-0.52,0.21-0.89,0.15-1.09-0.15c-0.1-0.31,0.03-0.62,0.39-0.93c5.46-5,9.83-12.91,13.1-23.74
				h-5.62l-4.6,0.7c-0.52,0.21-0.81,0.13-0.86-0.23l-0.78-2.81c-0.1-0.36,0.18-0.46,0.86-0.31l5.38,0.54h7.1V29.75v-0.77
				c0-0.26,0.16-0.39,0.47-0.39l7.46,1.01c1.3,0.36,1.95,0.88,1.95,1.54l-2.42,2.63v7.89h2.5c0.57,0,0.96-0.18,1.17-0.54l3.51-4.1
				c0.31-0.36,0.7-0.38,1.17-0.08c2.18,1.39,3.98,3.12,5.38,5.19c0.37,0.42,0.47,0.78,0.31,1.1c-0.21,0.37-0.65,0.55-1.32,0.55
				h-12.72v4.18l1.25,0.15c4.73,0.93,8.11,2.94,10.14,6.03c0.67,1.23,0.91,2.58,0.7,4.02c-0.26,1.34-0.96,2.24-2.11,2.71
				c-2.55,0.93-4.24-0.18-5.07-3.32c-1.09-3.45-2.73-5.98-4.91-7.58L405.19,69.44L405.19,69.44z M394.11,78.27
				c0.26,0,0.42,0.18,0.47,0.54c0.62,3.56,0.55,7.06-0.23,10.51c-0.78,3.4-2.13,6.03-4.06,7.89c-1.04,0.98-2.21,1.47-3.51,1.47
				c-1.25-0.05-2.26-0.54-3.04-1.47c-0.42-0.57-0.62-1.11-0.62-1.63c-0.26-2.16,0.62-3.71,2.65-4.64c3.9-2.37,6.55-6.42,7.95-12.14
				C393.77,78.45,393.91,78.27,394.11,78.27z M401.54,75.02c-0.05-0.31,0.18-0.49,0.7-0.54c2.12,0.11,4.38,0.39,6.76,0.85
				c1.3,0.31,1.95,0.77,1.95,1.39l-2.03,2.48v11.75c-0.05,0.47,0.1,0.95,0.47,1.47c0.42,0.52,1.09,0.85,2.03,1.01l0.94,0.15
				c11.28,0.52,18.8,0.31,22.54-0.62c0.99-0.72,1.9-3.19,2.73-7.42c0.15-0.46,0.41-0.7,0.78-0.7c0.42,0,0.65,0.26,0.7,0.77
				l0.47,4.49c0.21,1.29,0.78,2.24,1.72,2.86c1.4,0.62,2.1,1.63,2.1,3.02c0,1.49-0.94,2.57-2.81,3.24c-2.18,0.88-4.7,1.42-7.56,1.63
				l-12.01,0.31c-6.97-0.1-11.72-0.57-14.27-1.39c-2.07-0.77-3.5-1.86-4.28-3.25c-0.62-1.24-0.96-2.47-1.01-3.71V77.42L401.54,75.02
				z M414.32,73.56c0.1-0.31,0.34-0.44,0.7-0.39c7.23,1.39,11.93,4.18,14.12,8.35c0.68,1.34,0.83,2.81,0.47,4.41
				c-0.31,1.44-1.12,2.4-2.42,2.86c-2.81,0.77-4.6-0.54-5.38-3.94c-1.2-4.95-3.59-8.45-7.17-10.51
				C414.37,74.17,414.26,73.91,414.32,73.56z M428.58,69.74c0,1.45-0.34,2.42-1.02,2.94c-0.83,0.72-2.06,1.08-3.68,1.08
				c-0.94,0-1.64-0.23-2.11-0.7c-0.42-0.41-0.6-1.03-0.55-1.85V31.9v-0.54h0.63c2.14,0.52,4.4,1.39,6.8,2.63h11.1
				c0.68,0.11,1.17,0,1.49-0.31l2.11-2.24c0.52-0.57,1.04-0.74,1.56-0.54c2.92,1.08,5.11,2.19,6.57,3.33
				c1.46,1.19,1.22,2.19-0.7,3.02c-0.42,0.21-0.63,0.49-0.63,0.85v32.74c-0.05,0.98-0.5,1.73-1.33,2.24
				c-0.84,0.52-1.99,0.78-3.46,0.78c-1,0-1.73-0.23-2.2-0.7c-0.32-0.31-0.47-0.8-0.47-1.47v-3.71h-14.11L428.58,69.74L428.58,69.74z
				 M442.7,44.77v-8.41c-0.21-0.42-0.47-0.47-0.78-0.16h-13.34v8.57H442.7z M442.7,55.66v-8.77h-14.11v8.77H442.7z M442.7,65.84
				v-8.07h-14.11v8.07H442.7z M438.88,77.58c0.15-0.26,0.41-0.31,0.78-0.15h0.23c7.95,3.4,12.79,7.96,14.51,13.69
				c0.52,1.45,0.47,2.94-0.15,4.48c-0.52,1.39-1.48,2.19-2.89,2.4c-2.96,0.41-4.53-1.16-4.68-4.72c-0.78-6.6-3.3-11.54-7.56-14.85
				C438.91,78.22,438.83,77.94,438.88,77.58z"/>
			<path d="M505.6,35.83v-8.12c-0.05-0.15,0.1-0.23,0.47-0.23c2.79,0.15,5.43,0.49,7.92,1.01c0.99,0.31,1.48,0.72,1.48,1.24
				c-0.05,0.72-0.49,1.19-1.33,1.39c-0.57,0.16-0.83,0.47-0.78,0.93v3.79h15.99c0.57-0.05,1.01-0.26,1.33-0.62l3.98-4.95
				c0.42-0.41,0.89-0.46,1.4-0.15c2.7,1.65,4.94,3.71,6.71,6.19c0.36,0.42,0.47,0.78,0.31,1.1c-0.21,0.37-0.65,0.55-1.33,0.55
				h-58.84v11.98c0,8.97-0.47,17.19-1.41,24.67c-1.73,12.32-5.4,21.21-11.03,26.67c-0.47,0.26-0.81,0.28-1.01,0.08
				c-0.21-0.26,0.15-1.55,1.09-3.87c3.07-10.05,4.6-25.9,4.6-47.55V33.21c0-0.47,0.18-0.67,0.55-0.62c2.18,0.72,4.67,1.81,7.48,3.25
				h22.42V35.83z M502.19,90.82l5.54,4.33c0.83,0.77,1.09,1.41,0.78,1.93c-0.42,0.47-0.96,0.59-1.64,0.39
				c-0.42-0.15-1.04-0.05-1.87,0.31c-7.23,3.45-15.29,5.18-24.18,5.18c-0.52-0.1-0.78-0.26-0.78-0.47
				c-0.05-0.52,0.39-0.77,1.33-0.77c8.73-2.32,15.44-5.9,20.12-10.75C501.75,90.72,501.98,90.67,502.19,90.82z M525.32,68.89
				c0.36,0,0.65-0.15,0.85-0.47l1.87-1.93l0.85-0.15c2.43,0.83,4.69,2.01,6.76,3.56c1.46,1.09,1.25,2.02-0.62,2.79
				c-0.47,0.21-0.7,0.65-0.7,1.32v14.73c-0.1,0.93-0.5,1.62-1.18,2.09c-0.89,0.52-2.15,0.8-3.76,0.85
				c-1.15-0.05-1.91-0.33-2.27-0.85c-0.37-0.47-0.55-1.18-0.55-2.17v-0.62h-29.94v0.54c0,1.29-0.42,2.19-1.25,2.71
				c-1.1,0.62-2.3,0.95-3.61,1.01c-0.99,0-1.8-0.23-2.43-0.7c-0.37-0.31-0.53-0.93-0.47-1.86V66.49c0-0.46,0.1-0.67,0.31-0.62
				c3.18,0.77,5.78,1.78,7.81,3.02h10.63v-5.85h-17l-4.6,0.7c-0.52,0.21-0.81,0.13-0.86-0.23l-0.78-2.81
				c-0.1-0.36,0.18-0.46,0.86-0.31l5.38,0.54h37.95c0.57-0.05,1.01-0.26,1.33-0.62l3.98-4.95c0.42-0.41,0.89-0.46,1.41-0.15
				c2.7,1.65,4.94,3.71,6.71,6.19c0.36,0.42,0.47,0.78,0.31,1.1c-0.21,0.37-0.65,0.55-1.33,0.55H515.4v5.85h9.92V68.89z
				 M503.28,55.89v0.46c0,1.13-0.49,1.93-1.47,2.4c-1.45,0.57-2.97,0.54-4.57-0.08c-0.88-0.47-1.32-1.16-1.32-2.09v-7.75h-3.35
				l-4.6,0.7c-0.52,0.2-0.81,0.13-0.86-0.23l-0.78-2.82c-0.1-0.36,0.18-0.46,0.86-0.31l5.38,0.54h3.35v-6.5
				c0-0.26,0.16-0.38,0.47-0.38l6.81,1c1.3,0.26,1.95,0.7,1.95,1.32l-1.87,2.39v2.17h15.32v-6.5c0-0.26,0.16-0.38,0.48-0.38l6.91,1
				c1.3,0.26,1.95,0.7,1.95,1.32l-1.87,2.39v2.17h1.56c0.57,0,0.96-0.18,1.17-0.54l3.51-4.1c0.31-0.36,0.7-0.39,1.17-0.08
				c2.18,1.39,3.98,3.13,5.38,5.19c0.37,0.42,0.47,0.78,0.31,1.1c-0.21,0.37-0.65,0.55-1.33,0.55h-11.78v7.52
				c0,1.13-0.5,1.93-1.49,2.4c-1.47,0.57-3.01,0.54-4.63-0.08c-0.89-0.47-1.34-1.16-1.34-2.09v-0.7L503.28,55.89L503.28,55.89z
				 M507.61,71.01h-10.99v6.25h10.99V71.01z M507.61,79.38h-10.99v6.55h10.99V79.38z M518.6,48.83h-15.32v4.94h15.32V48.83z
				 M515.38,77.26h11.19v-5.94c-0.2-0.41-0.49-0.51-0.85-0.31h-10.34V77.26z M515.38,85.93h11.19v-6.55h-11.19V85.93z M515.84,92.21
				c0.1-0.31,0.34-0.43,0.7-0.38c5.25,0,10.06,0.64,14.43,1.93c4.63,1.13,7.41,3.02,8.35,5.65c0.31,1.03,0.13,1.96-0.55,2.78
				c-0.73,0.88-1.66,1.29-2.81,1.24c-1.09-0.15-2.34-0.72-3.75-1.7c-4.26-3.46-9.59-6.42-15.99-8.89
				C515.97,92.73,515.84,92.52,515.84,92.21z"/>
			<path d="M590.06,45.77h-14.9l-0.94,1.47c-3.85,5.51-7.98,9.38-12.4,11.6c-0.52,0.26-0.86,0.23-1.01-0.08
				c-0.21-0.31-0.13-0.62,0.23-0.93c5.77-5.77,9.67-14.62,11.7-26.55c0.1-0.51,0.47-0.69,1.09-0.54c2.96,0.67,5.77,1.81,8.42,3.4
				c0.73,0.51,0.99,1.03,0.78,1.55c-0.21,0.72-0.88,1.06-2.03,1c-0.57,0-1.01,0.42-1.33,1.24l-3.28,5.72h13.65V28.11
				c-0.05-0.15,0.1-0.23,0.47-0.23c2.79,0.15,5.43,0.49,7.92,1.01c0.99,0.31,1.48,0.72,1.48,1.24c-0.05,0.72-0.49,1.19-1.33,1.39
				c-0.57,0.16-0.83,0.47-0.78,0.93v11.21h9.83c0.57,0,1.01-0.23,1.32-0.7l4.14-5.1c0.47-0.46,0.96-0.51,1.48-0.15
				c2.81,1.75,5.15,3.89,7.02,6.42c0.36,0.42,0.47,0.78,0.31,1.1c-0.21,0.37-0.65,0.55-1.33,0.55H597.8V61h18.25
				c0.57,0,1.01-0.23,1.33-0.7l4.13-5.1c0.47-0.46,0.96-0.51,1.48-0.15c2.81,1.75,5.14,3.89,7.02,6.42c0.36,0.42,0.47,0.78,0.31,1.1
				c-0.21,0.37-0.65,0.55-1.33,0.55h-64.62l-4.6,0.69c-0.52,0.21-0.81,0.13-0.86-0.23l-0.78-2.81c-0.1-0.36,0.18-0.47,0.86-0.31
				l5.38,0.54h25.66V45.77H590.06z M576.35,99.47c0,1.29-0.42,2.19-1.25,2.71c-1.1,0.62-2.3,0.95-3.61,1c-0.99,0-1.8-0.23-2.43-0.69
				c-0.37-0.31-0.53-0.93-0.47-1.86V71.6c0-0.46,0.1-0.67,0.31-0.62c3.18,0.77,5.78,1.78,7.81,3.02h31.08
				c0.68,0.1,1.2-0.03,1.56-0.39l2.11-2.24c0.47-0.62,1.01-0.82,1.64-0.62c2.97,1.13,5.23,2.27,6.79,3.4
				c1.66,1.34,1.4,2.42-0.78,3.24c-0.42,0.21-0.62,0.49-0.62,0.85v21.85c0,1.08-0.47,1.88-1.41,2.4c-0.89,0.57-2.06,0.85-3.53,0.85
				c-1.05,0-1.83-0.26-2.35-0.77c-0.31-0.36-0.47-0.88-0.47-1.55v-3.63h-34.38L576.35,99.47L576.35,99.47z M610.72,95.27v-18.9
				c-0.21-0.41-0.47-0.46-0.78-0.15h-33.6v19.05L610.72,95.27L610.72,95.27z"/>
		</g>
		<g>
			<path d="M229.37,142.37h-3.62l-13.66-21.15c-0.3-0.5-0.57-1.02-0.81-1.57h-0.1c0.09,0.54,0.14,1.71,0.14,3.52v19.21h-2.89v-26.19
				h3.82l13.29,20.93c0.68,1.08,1.03,1.68,1.07,1.79h0.07c-0.12-0.87-0.19-2.18-0.19-3.94v-18.78h2.89v26.18H229.37z"/>
			<path d="M250.81,133.71h-13.26c0.06,2.15,0.63,3.8,1.71,4.95s2.56,1.72,4.45,1.72c2.11,0,4.05-0.7,5.83-2.11v2.71
				c-1.63,1.22-3.8,1.83-6.49,1.83c-2.6,0-4.66-0.85-6.16-2.55s-2.26-4.1-2.26-7.19c0-2.84,0.81-5.19,2.44-7.05s3.67-2.79,6.11-2.79
				c2.4,0,4.27,0.79,5.61,2.37s2.01,3.78,2.01,6.59v1.52H250.81z M247.9,131.22c-0.01-1.76-0.43-3.12-1.27-4.1
				c-0.83-0.97-2-1.46-3.5-1.46c-1.36,0-2.56,0.49-3.59,1.47c-1.03,0.98-1.68,2.34-1.95,4.09H247.9z"/>
			<path d="M254.14,133.25c0-3.11,0.85-5.56,2.54-7.35c1.7-1.79,4-2.68,6.92-2.68c2.75,0,4.91,0.86,6.47,2.59
				c1.56,1.72,2.34,4.11,2.34,7.15c0,2.95-0.85,5.33-2.54,7.14s-3.93,2.71-6.71,2.71c-2.69,0-4.87-0.87-6.54-2.6
				C254.97,138.46,254.14,136.15,254.14,133.25z M257.01,133.13c0,2.21,0.58,3.97,1.73,5.29c1.16,1.32,2.7,1.98,4.62,1.98
				c1.96,0,3.48-0.64,4.56-1.93s1.61-3.09,1.61-5.41c0-2.38-0.53-4.21-1.6-5.5c-1.06-1.29-2.59-1.94-4.57-1.94
				c-1.94,0-3.48,0.67-4.63,2C257.59,128.97,257.01,130.8,257.01,133.13z"/>
			<path d="M305.63,116.17l-9.74,26.19h-3.16l-9.54-26.19h3.21l7.37,20.93c0.23,0.64,0.4,1.41,0.52,2.3h0.08
				c0.08-0.71,0.28-1.49,0.59-2.33l7.54-20.9L305.63,116.17L305.63,116.17z"/>
			<path d="M308.65,116.94c0-0.53,0.18-0.98,0.53-1.34c0.35-0.37,0.79-0.55,1.29-0.55c0.53,0,0.98,0.19,1.34,0.56
				c0.37,0.37,0.55,0.82,0.55,1.34c0,0.5-0.18,0.93-0.55,1.3s-0.81,0.56-1.34,0.56s-0.97-0.18-1.31-0.54
				C308.82,117.89,308.65,117.45,308.65,116.94z M309.04,142.37v-18.7h2.81v18.7H309.04z"/>
			<path d="M316.83,138.56c1.63,1.21,3.43,1.81,5.38,1.81c2.66,0,3.99-0.9,3.99-2.69c0-0.79-0.29-1.43-0.87-1.93
				s-1.72-1.07-3.42-1.71c-2.03-0.8-3.38-1.61-4.04-2.42s-1-1.82-1-3.03c0-1.6,0.68-2.9,2.05-3.89s3.05-1.49,5.05-1.49
				c1.6,0,3.03,0.28,4.29,0.84v2.94c-1.38-0.9-2.96-1.35-4.75-1.35c-1.1,0-2,0.25-2.7,0.74c-0.69,0.5-1.04,1.15-1.04,1.96
				c0,0.81,0.24,1.43,0.72,1.86s1.56,0.99,3.24,1.67c2.13,0.81,3.56,1.63,4.29,2.46s1.09,1.85,1.09,3.05c0,1.67-0.68,2.98-2.05,3.95
				c-1.37,0.96-3.12,1.45-5.27,1.45c-1.93,0-3.58-0.38-4.95-1.13L316.83,138.56L316.83,138.56z"/>
			<path d="M333.42,116.94c0-0.53,0.18-0.98,0.53-1.34c0.36-0.37,0.79-0.55,1.29-0.55c0.53,0,0.98,0.19,1.34,0.56
				s0.55,0.82,0.55,1.34c0,0.5-0.18,0.93-0.55,1.3s-0.81,0.56-1.34,0.56s-0.97-0.18-1.31-0.54
				C333.59,117.89,333.42,117.45,333.42,116.94z M333.81,142.37v-18.7h2.81v18.7H333.81z"/>
			<path d="M341.5,133.25c0-3.11,0.85-5.56,2.54-7.35s4-2.68,6.92-2.68c2.75,0,4.91,0.86,6.47,2.59c1.56,1.72,2.34,4.11,2.34,7.15
				c0,2.95-0.85,5.33-2.54,7.14c-1.69,1.8-3.93,2.71-6.71,2.71c-2.69,0-4.87-0.87-6.54-2.6C342.33,138.46,341.5,136.15,341.5,133.25
				z M344.38,133.13c0,2.21,0.58,3.97,1.73,5.29c1.16,1.32,2.7,1.98,4.62,1.98c1.96,0,3.48-0.64,4.56-1.93s1.61-3.09,1.61-5.41
				c0-2.38-0.53-4.21-1.6-5.5c-1.07-1.29-2.59-1.94-4.57-1.94c-1.94,0-3.48,0.67-4.63,2C344.95,128.97,344.38,130.8,344.38,133.13z"
				/>
			<path d="M379.99,142.37h-2.82v-10.69c0-4.04-1.48-6.05-4.43-6.05c-1.54,0-2.81,0.58-3.8,1.73c-0.99,1.16-1.49,2.6-1.49,4.34
				v10.67h-2.82v-18.7h2.82v3.13h0.08c1.4-2.38,3.44-3.57,6.14-3.57c2.05,0,3.62,0.66,4.7,1.98s1.62,3.23,1.62,5.73L379.99,142.37
				L379.99,142.37z"/>
			<path d="M414.83,142.37h-3.2l-2.84-7.44h-11.23l-2.65,7.44h-3.21l10.08-26.19h2.92L414.83,142.37z M407.82,132.29l-4.19-11.31
				c-0.11-0.32-0.24-0.89-0.39-1.72h-0.08c-0.12,0.77-0.26,1.34-0.42,1.72l-4.15,11.31H407.82z"/>
			<path d="M434.14,142.37h-2.81v-3.21h-0.07c-1.39,2.44-3.54,3.65-6.46,3.65c-2.37,0-4.25-0.84-5.65-2.53s-2.1-3.96-2.1-6.82
				c0-3.07,0.78-5.54,2.35-7.42c1.57-1.88,3.63-2.81,6.21-2.81s4.45,1.02,5.65,3.06h0.07v-11.6h2.81V142.37z M431.34,131.1
				c0-1.53-0.52-2.83-1.56-3.89c-1.04-1.06-2.32-1.59-3.83-1.59c-1.87,0-3.34,0.69-4.4,2.07c-1.06,1.38-1.6,3.25-1.6,5.61
				c0,2.15,0.51,3.88,1.53,5.17s2.39,1.94,4.12,1.94c1.66,0,3.03-0.61,4.12-1.82c1.09-1.21,1.63-2.76,1.63-4.64v-2.85H431.34z"/>
			<path d="M454.79,123.67l-7.49,18.7h-2.71l-7.1-18.7h3.11l4.82,13.73c0.37,1.06,0.59,1.91,0.66,2.55h0.08
				c0.15-1.03,0.34-1.85,0.58-2.49l5.07-13.8h2.98V123.67z"/>
			<path d="M472.73,133.71h-13.26c0.06,2.15,0.62,3.8,1.71,4.95c1.08,1.15,2.56,1.72,4.45,1.72c2.11,0,4.05-0.7,5.83-2.11v2.71
				c-1.63,1.22-3.8,1.83-6.49,1.83c-2.6,0-4.66-0.85-6.16-2.55s-2.26-4.1-2.26-7.19c0-2.84,0.81-5.19,2.44-7.05s3.67-2.79,6.11-2.79
				c2.4,0,4.27,0.79,5.61,2.37c1.34,1.58,2.01,3.78,2.01,6.59L472.73,133.71L472.73,133.71z M469.82,131.22
				c-0.01-1.76-0.43-3.12-1.27-4.1c-0.83-0.97-2-1.46-3.5-1.46c-1.36,0-2.56,0.49-3.59,1.47c-1.03,0.98-1.68,2.34-1.95,4.09H469.82z
				"/>
			<path d="M486.93,126.56c-0.52-0.39-1.27-0.59-2.25-0.59c-1.32,0-2.4,0.63-3.25,1.89c-0.85,1.26-1.28,2.91-1.28,4.95v9.57h-2.82
				v-18.7h2.82v3.87h0.08c0.43-1.33,1.08-2.36,1.96-3.09c0.88-0.73,1.85-1.1,2.91-1.1c0.8,0,1.41,0.08,1.83,0.25V126.56z"/>
			<path d="M499.8,142.18c-0.69,0.39-1.6,0.59-2.72,0.59c-3.21,0-4.82-1.81-4.82-5.43V126.1h-3.25v-2.43h3.25v-4.6l2.81-0.91v5.51
				h4.73v2.43h-4.73v10.74c0,1.27,0.21,2.18,0.64,2.72s1.14,0.81,2.15,0.81c0.78,0,1.43-0.21,1.94-0.63L499.8,142.18L499.8,142.18z"
				/>
			<path d="M503.48,116.94c0-0.53,0.18-0.98,0.53-1.34c0.36-0.37,0.79-0.55,1.29-0.55c0.53,0,0.98,0.19,1.34,0.56
				s0.55,0.82,0.55,1.34c0,0.5-0.18,0.93-0.55,1.3s-0.81,0.56-1.34,0.56s-0.97-0.18-1.31-0.54
				C503.66,117.89,503.48,117.45,503.48,116.94z M503.87,142.37v-18.7h2.81v18.7H503.87z"/>
			<path d="M511.67,138.56c1.63,1.21,3.43,1.81,5.38,1.81c2.66,0,3.99-0.9,3.99-2.69c0-0.79-0.29-1.43-0.87-1.93
				s-1.72-1.07-3.42-1.71c-2.03-0.8-3.38-1.61-4.04-2.42s-1-1.82-1-3.03c0-1.6,0.68-2.9,2.05-3.89s3.05-1.49,5.05-1.49
				c1.6,0,3.03,0.28,4.29,0.84v2.94c-1.38-0.9-2.96-1.35-4.75-1.35c-1.1,0-2,0.25-2.7,0.74c-0.69,0.5-1.04,1.15-1.04,1.96
				c0,0.81,0.24,1.43,0.72,1.86s1.56,0.99,3.24,1.67c2.13,0.81,3.56,1.63,4.29,2.46s1.09,1.85,1.09,3.05c0,1.67-0.68,2.98-2.05,3.95
				c-1.37,0.96-3.12,1.45-5.27,1.45c-1.93,0-3.58-0.38-4.95-1.13L511.67,138.56L511.67,138.56z"/>
			<path d="M543.54,133.71h-13.26c0.06,2.15,0.62,3.8,1.71,4.95c1.08,1.15,2.56,1.72,4.45,1.72c2.11,0,4.05-0.7,5.83-2.11v2.71
				c-1.63,1.22-3.8,1.83-6.49,1.83c-2.6,0-4.66-0.85-6.16-2.55s-2.26-4.1-2.26-7.19c0-2.84,0.81-5.19,2.44-7.05s3.67-2.79,6.11-2.79
				c2.4,0,4.27,0.79,5.61,2.37c1.34,1.58,2.01,3.78,2.01,6.59L543.54,133.71L543.54,133.71z M540.63,131.22
				c-0.01-1.76-0.43-3.12-1.27-4.1c-0.83-0.97-2-1.46-3.5-1.46c-1.36,0-2.56,0.49-3.59,1.47c-1.03,0.98-1.68,2.34-1.95,4.09H540.63z
				"/>
			<path d="M574.5,142.37h-2.82v-10.74c0-2.18-0.33-3.72-0.99-4.63s-1.75-1.37-3.27-1.37c-1.27,0-2.37,0.6-3.3,1.79
				c-0.92,1.2-1.39,2.62-1.39,4.26v10.69h-2.81v-11.13c0-3.74-1.45-5.61-4.35-5.61c-1.33,0-2.43,0.57-3.31,1.71
				c-0.87,1.14-1.31,2.59-1.31,4.35v10.69h-2.82v-18.7h2.82v2.96h0.08c1.31-2.27,3.23-3.4,5.78-3.4c1.22,0,2.31,0.36,3.29,1.07
				c0.97,0.72,1.64,1.66,1.99,2.83c1.39-2.6,3.46-3.91,6.22-3.91c4.11,0,6.17,2.54,6.17,7.62v11.52H574.5z"/>
			<path d="M595.13,133.71h-13.26c0.06,2.15,0.62,3.8,1.71,4.95c1.08,1.15,2.56,1.72,4.45,1.72c2.11,0,4.05-0.7,5.83-2.11v2.71
				c-1.63,1.22-3.8,1.83-6.49,1.83c-2.6,0-4.66-0.85-6.16-2.55s-2.26-4.1-2.26-7.19c0-2.84,0.81-5.19,2.44-7.05s3.67-2.79,6.11-2.79
				c2.4,0,4.27,0.79,5.61,2.37c1.34,1.58,2.01,3.78,2.01,6.59L595.13,133.71L595.13,133.71z M592.22,131.22
				c-0.01-1.76-0.43-3.12-1.27-4.1c-0.83-0.97-2-1.46-3.5-1.46c-1.36,0-2.56,0.49-3.59,1.47c-1.03,0.98-1.68,2.34-1.95,4.09H592.22z
				"/>
			<path d="M615.09,142.37h-2.82v-10.69c0-4.04-1.48-6.05-4.43-6.05c-1.54,0-2.81,0.58-3.8,1.73c-0.99,1.16-1.49,2.6-1.49,4.34
				v10.67h-2.82v-18.7h2.82v3.13h0.08c1.4-2.38,3.44-3.57,6.14-3.57c2.05,0,3.62,0.66,4.7,1.98s1.62,3.23,1.62,5.73L615.09,142.37
				L615.09,142.37z"/>
			<path d="M629.3,142.18c-0.69,0.39-1.6,0.59-2.72,0.59c-3.21,0-4.82-1.81-4.82-5.43V126.1h-3.25v-2.43h3.25v-4.6l2.81-0.91v5.51
				h4.73v2.43h-4.73v10.74c0,1.27,0.21,2.18,0.64,2.72s1.14,0.81,2.15,0.81c0.78,0,1.43-0.21,1.94-0.63L629.3,142.18L629.3,142.18z"
				/>
		</g>
	</g>
</g>
</svg>
